HIERARCHY
ROOT Hips
{
  OFFSET 90.7885 88.945 -76.2838
  CHANNELS 6 Xposition Yposition Zposition Zrotation Xrotation Yrotation
  JOINT LeftUpLeg
  {
    OFFSET 8.64259 1.95398 -2.38835
    CHANNELS 3 Zrotation Xrotation Yrotation
    JOINT LeftLeg
    {
      OFFSET 43.7702 0 0
      CHANNELS 3 Zrotation Xrotation Yrotation
      JOINT LeftFoot
      {
        OFFSET 40.6238 0 0
        CHANNELS 3 Zrotation Xrotation Yrotation
        JOINT LeftToeBase
        {
          OFFSET 12.7242 0 0
          CHANNELS 3 Zrotation Xrotation Yrotation
          End Site
          {
            OFFSET 0 0 0
          }
        }
      }
    }
  }
  JOINT RightUpLeg
  {
    OFFSET -8.2249 1.95398 -2.59336
    CHANNELS 3 Zrotation Xrotation Yrotation
    JOINT RightLeg
    {
      OFFSET 43.5653 0 0
      CHANNELS 3 Zrotation Xrotation Yrotation
      JOINT RightFoot
      {
        OFFSET 40.6238 0 0
        CHANNELS 3 Zrotation Xrotation Yrotation
        JOINT RightToeBase
        {
          OFFSET 12.7242 0 0
          CHANNELS 3 Zrotation Xrotation Yrotation
          End Site
          {
            OFFSET 0 0 0
          }
        }
      }
    }
  }
  JOINT Spine
  {
    OFFSET 0.165834 0.87714 6.61349
    CHANNELS 3 Zrotation Xrotation Yrotation
    JOINT Spine1
    {
      OFFSET 7.38963 1.71661e-005 0
      CHANNELS 3 Zrotation Xrotation Yrotation
      JOINT Spine2
      {
        OFFSET 11.9445 1.14441e-005 0
        CHANNELS 3 Zrotation Xrotation Yrotation
        JOINT Spine3
        {
          OFFSET 14.7254 4.19617e-005 0
          CHANNELS 3 Zrotation Xrotation Yrotation
          JOINT Spine4
          {
            OFFSET 10.9679 0 0
            CHANNELS 3 Zrotation Xrotation Yrotation
            JOINT RightShoulder
            {
              OFFSET 2.46616 -1.6653 3.69651
              CHANNELS 3 Zrotation Xrotation Yrotation
              JOINT RightArm
              {
                OFFSET 13.0012 0 0
                CHANNELS 3 Zrotation Xrotation Yrotation
                JOINT RightForeArm
                {
                  OFFSET 28.7848 1.52588e-005 0
                  CHANNELS 3 Zrotation Xrotation Yrotation
                  JOINT RightHand
                  {
                    OFFSET 26.5688 1.52588e-005 0
                    CHANNELS 3 Zrotation Xrotation Yrotation
                    End Site
                    {
                      OFFSET 0 0 0
                    }
                  }
                }
              }
            }
            JOINT LeftShoulder
            {
              OFFSET 2.38034 -1.29275 -3.7523
              CHANNELS 3 Zrotation Xrotation Yrotation
              JOINT LeftArm
              {
                OFFSET 16.3182 6.10352e-005 0
                CHANNELS 3 Zrotation Xrotation Yrotation
                JOINT LeftForeArm
                {
                  OFFSET 27.0901 0 0
                  CHANNELS 3 Zrotation Xrotation Yrotation
                  JOINT LeftHand
                  {
                    OFFSET 24.5451 1.52588e-005 0
                    CHANNELS 3 Zrotation Xrotation Yrotation
                    End Site
                    {
                      OFFSET 0 0 0
                    }
                  }
                }
              }
            }
            JOINT Neck
            {
              OFFSET 5.0226 -0.0266342 0
              CHANNELS 3 Zrotation Xrotation Yrotation
              JOINT Head
              {
                OFFSET 6.69363 2.86102e-005 0
                CHANNELS 3 Zrotation Xrotation Yrotation
                End Site
                {
                  OFFSET 0 0 0
                }
              }
            }
          }
        }
      }
    }
  }
}
MOTION
Frames:	7
Frame Time:	0.0416667
126.498 86.876 135.817 -68.8561 -49.5807 -71.1736 -173.196 49.8403 110.058 -51.7436 33.1143 -0.818668 71.4944 5.15104 0.651056 37.9812 -0.353128 -1.26593 167.847 42.8015 71.0241 -59.7556 -2.76108 0.551108 79.0113 -9.65851 -1.33916 21.6299 -1.88612 5.26649 0.96322 9.15161 -90.0136 8.57259 1.91605 -0.148613 -3.09697 1.90766 -0.232832 -25.6431 1.87209 0.434312 -5.63046 1.87209 0.434319 84.947 -31.2464 -115.976 35.044 8.36422 13.0217 -38.1471 -34.1987 -63.9756 -43.7873 -2.30271 -7.4509 -90.7596 -46.5509 76.7828 1.50453 22.3891 -51.9698 39.1473 -13.2384 -88.6634 3.39501 -0.540815 -13.2909 37.0328 -1.80619 -9.12836 -7.64805 2.41633 2.25075 
123.732 85.168 134.036 -74.4968 -45.5779 -76.2793 -171.818 47.5317 113.579 -54.97 31.0273 -0.0837167 73.5616 6.19173 0.473834 39.6301 -2.00978 1.42521 168.252 45.0239 65.3955 -59.8637 -1.94864 -0.0159373 77.7694 -9.514 -3.08182 19.2063 -1.45524 4.66809 0.738729 9.27171 -90.2523 8.33427 1.36315 -0.581272 -3.33615 1.33624 -0.640732 -25.8767 1.47483 -0.144637 -5.86409 1.47481 -0.144657 87.2282 -30.4495 -112 25.1932 24.589 22.4395 -29.5009 -30.1281 -59.7322 -47.8941 -1.5924 -7.36262 -90.7541 -45.224 76.4624 -3.19676 19.4185 -53.2699 35.5557 -13.9788 -91.6526 1.45655 -0.466026 -15.5318 35.0444 0.168943 -10.4045 -7.65058 4.57666 4.35546 
120.441 83.0307 132.085 -79.6223 -40.0441 -80.4905 -170.238 43.7733 118.109 -56.962 28.4439 0.92679 75.8889 6.91274 -2.7331 43.9618 -4.80574 6.18765 168.501 49.4088 61.5081 -60.8188 1.76321 0.301312 77.8189 -9.67176 -2.75742 16.5587 -1.64179 5.29312 0.449225 9.29434 -90.4145 8.2866 0.714174 -0.861955 -3.38442 0.675555 -0.892554 -25.92 0.940208 -0.607466 -5.90732 0.940207 -0.607472 89.1302 -28.9887 -108.889 13.1125 27.4776 30.4818 -19.0261 -25.5153 -52.0697 -47.3851 0.965682 -11.898 -89.5004 -40.7599 77.369 -9.12771 15.516 -54.1099 34.8885 -14.4995 -94.7007 0.115309 -0.341704 -15.8144 33.842 3.02037 -11.7049 -9.82213 7.49636 6.64162 
115.676 81.9887 129.541 -82.7666 -32.2026 -84.1696 -166.67 36.4585 121.534 -52.9009 25.2535 0.265598 76.0182 6.78416 -4.07164 47.0225 -6.41828 9.4768 169.691 54.8334 60.4686 -61.3929 -1.92072 0.738339 75.4386 -9.04046 -5.02406 16.7029 -1.65405 5.30494 0.298129 9.15096 -90.5221 8.57267 0.363827 -1.05486 -3.09867 0.317058 -1.06986 -25.6316 0.664025 -0.896776 -5.61891 0.664032 -0.896776 90.5036 -25.2737 -107.644 5.16793 24.4539 35.7242 -20.4898 -27.1187 -49.1283 -42.2348 1.55003 -14.9874 -88.3741 -37.4685 78.464 -12.1533 11.4374 -51.206 34.0709 -15.3489 -98.4237 -1.1967 -0.212508 -16.3739 31.6476 8.87276 -6.89616 -9.6118 10.9377 5.4792 
109.067 82.7949 126.073 -84.9754 -24.8277 -88.9299 -163.267 23.2679 122.201 -39.919 21.8779 -0.271706 62.3911 1.65973 -7.46101 57.7888 -7.18313 11.6248 168.493 57.4721 62.2699 -61.1106 -8.8637 1.64689 73.3791 -7.76283 -4.37421 20.164 -1.09074 3.86217 0.0263754 8.99392 -90.3453 8.8852 -0.101104 -0.676731 -2.78589 -0.130817 -0.671629 -25.3197 0.10696 -0.67583 -5.30702 0.106964 -0.675826 89.9105 -22.8569 -110.021 1.08441 23.0044 39.4969 -22.8516 -28.0151 -52.0686 -41.474 1.37589 -15.0882 -87.3892 -35.4666 79.715 -12.0964 9.14309 -43.8434 31.4989 -15.3579 -100.274 -0.648826 -0.285885 -17.3019 28.7763 15.5471 -0.53396 -10.1842 14.7447 4.8 
100.796 84.5007 121.528 -84.8545 -17.2444 -93.171 -163.813 7.31512 119.964 -23.7775 22.363 2.23589 46.5556 -3.80884 -4.34032 56.1182 -5.14102 6.87052 164.394 57.4421 68.3085 -60.9384 -12.7661 3.18576 67.5413 -4.32003 -0.087162 25.0968 -1.33428 3.69796 -0.124275 8.57859 -90.0924 9.71611 -0.289492 -0.159449 -1.95482 -0.296236 -0.146558 -24.4901 -0.228183 -0.239081 -4.47741 -0.228188 -0.239083 90.0746 -22.7149 -109.73 0.669145 23.3397 37.5043 -28.9779 -31.1241 -59.7469 -43.15 0.448889 -13.4076 -87.0723 -38.2983 80.9168 -6.48356 9.38509 -32.0009 28.3566 -15.2816 -100.5 -0.34993 -0.323047 -17.537 23.9625 21.9962 9.80457 -10.9303 17.8679 0.845163 
92.4837 85.3905 115.953 -82.0099 -9.60861 -94.2897 -169.87 3.29009 115.897 -30.7953 26.7122 8.99705 51.7928 -2.52605 6.09963 21.079 3.20682 -2.78964 160.586 54.411 78.1391 -62.2834 -11.6181 4.62468 73.1328 -7.12624 -0.83828 22.5356 -1.15065 3.67274 0.14977 8.13202 -90.2127 10.6103 0.200451 -0.439358 -1.06066 0.180927 -0.447762 -23.5956 0.323238 -0.358806 -3.58292 0.323221 -0.358812 89.3462 -24.4905 -110.46 1.70762 21.228 31.5942 -27.1464 -28.0134 -59.8056 -44.4836 0.368493 -12.2438 -86.7399 -40.3386 81.9062 -4.87901 13.8995 -23.417 29.1892 -15.2083 -97.5655 1.76984 -0.480289 -15.2287 20.4737 26.7127 18.0886 -10.4309 20.5527 -1.22907 
